<svg width="299" height="347" viewBox="0 0 299 347" fill="none" xmlns="http://www.w3.org/2000/svg">
<path d="M99 85.8867C99.6188 85.5295 100.381 85.5295 101 85.8867L140.301 108.577C140.92 108.934 141.302 109.595 141.302 110.31V155.69C141.302 156.36 140.966 156.983 140.414 157.353L140.301 157.423L101 180.113C100.42 180.448 99.7132 180.469 99.1172 180.176L99 180.113L59.6992 157.423C59.0804 157.066 58.6992 156.405 58.6992 155.69V110.31C58.6992 109.595 59.0804 108.934 59.6992 108.577L59.6982 108.576L99 85.8867Z" stroke="#13D975" stroke-width="4"/>
<path d="M199 85.8867C199.619 85.5295 200.381 85.5295 201 85.8867L240.301 108.577C240.92 108.934 241.302 109.595 241.302 110.31V155.69C241.302 156.36 240.966 156.983 240.414 157.353L240.301 157.423L201 180.113C200.42 180.448 199.713 180.469 199.117 180.176L199 180.113L159.699 157.423C159.08 157.066 158.699 156.405 158.699 155.69V110.31C158.699 109.595 159.08 108.934 159.699 108.577L159.698 108.576L199 85.8867Z" stroke="#13D975" stroke-width="4"/>
<path d="M299 85.8867C299.619 85.5295 300.381 85.5295 301 85.8867L340.301 108.577C340.92 108.934 341.302 109.595 341.302 110.31V155.69C341.302 156.36 340.966 156.983 340.414 157.353L340.301 157.423L301 180.113C300.42 180.448 299.713 180.469 299.117 180.176L299 180.113L259.699 157.423C259.08 157.066 258.699 156.405 258.699 155.69V110.31C258.699 109.595 259.08 108.934 259.699 108.577L259.698 108.576L299 85.8867Z" stroke="#13D975" stroke-width="4"/>
<path d="M149 167.887C149.619 167.529 150.381 167.529 151 167.887L190.301 190.577C190.92 190.934 191.302 191.595 191.302 192.31V237.69C191.302 238.36 190.966 238.983 190.414 239.353L190.301 239.423L151 262.113C150.42 262.448 149.713 262.469 149.117 262.176L149 262.113L109.699 239.423C109.08 239.066 108.699 238.405 108.699 237.69V192.31C108.699 191.595 109.08 190.934 109.699 190.577L109.698 190.576L149 167.887Z" stroke="#13D975" stroke-width="4"/>
<path d="M249 167.887C249.619 167.529 250.381 167.529 251 167.887L290.301 190.577C290.92 190.934 291.302 191.595 291.302 192.31V237.69C291.302 238.36 290.966 238.983 290.414 239.353L290.301 239.423L251 262.113C250.42 262.448 249.713 262.469 249.117 262.176L249 262.113L209.699 239.423C209.08 239.066 208.699 238.405 208.699 237.69V192.31C208.699 191.595 209.08 190.934 209.699 190.577L209.698 190.576L249 167.887Z" stroke="#13D975" stroke-width="4"/>
<path d="M199 249.887C199.619 249.529 200.381 249.529 201 249.887L240.301 272.577C240.92 272.934 241.302 273.595 241.302 274.31V319.69C241.302 320.36 240.966 320.983 240.414 321.353L240.301 321.423L201 344.113C200.42 344.448 199.713 344.469 199.117 344.176L199 344.113L159.699 321.423C159.08 321.066 158.699 320.405 158.699 319.69V274.31C158.699 273.595 159.08 272.934 159.699 272.577L159.698 272.576L199 249.887Z" stroke="#13D975" stroke-width="4"/>
<path d="M299 249.887C299.619 249.529 300.381 249.529 301 249.887L340.301 272.577C340.92 272.934 341.302 273.595 341.302 274.31V319.69C341.302 320.36 340.966 320.983 340.414 321.353L340.301 321.423L301 344.113C300.42 344.448 299.713 344.469 299.117 344.176L299 344.113L259.699 321.423C259.08 321.066 258.699 320.405 258.699 319.69V274.31C258.699 273.595 259.08 272.934 259.699 272.577L259.698 272.576L299 249.887Z" stroke="#13D975" stroke-width="4"/>
<path d="M49 2.88672C49.6188 2.52946 50.3812 2.52946 51 2.88672L90.3008 25.5771C90.9196 25.9344 91.3018 26.595 91.3018 27.3096V72.6904C91.3018 73.3605 90.9661 73.983 90.4141 74.3525L90.3008 74.4229L51 97.1133C50.4197 97.4483 49.7132 97.4691 49.1172 97.1758L49 97.1133L9.69922 74.4229C9.08042 74.0656 8.69922 73.405 8.69922 72.6904V27.3096C8.69922 26.595 9.08041 25.9344 9.69922 25.5771L9.69824 25.5762L49 2.88672Z" stroke="#13D975" stroke-width="4"/>
<path d="M149 2.88672C149.619 2.52946 150.381 2.52946 151 2.88672L190.301 25.5771C190.92 25.9344 191.302 26.595 191.302 27.3096V72.6904C191.302 73.3605 190.966 73.983 190.414 74.3525L190.301 74.4229L151 97.1133C150.42 97.4483 149.713 97.4691 149.117 97.1758L149 97.1133L109.699 74.4229C109.08 74.0656 108.699 73.405 108.699 72.6904V27.3096C108.699 26.595 109.08 25.9344 109.699 25.5771L109.698 25.5762L149 2.88672Z" stroke="#13D975" stroke-width="4"/>
<path d="M249 2.88672C249.619 2.52946 250.381 2.52946 251 2.88672L290.301 25.5771C290.92 25.9344 291.302 26.595 291.302 27.3096V72.6904C291.302 73.3605 290.966 73.983 290.414 74.3525L290.301 74.4229L251 97.1133C250.42 97.4483 249.713 97.4691 249.117 97.1758L249 97.1133L209.699 74.4229C209.08 74.0656 208.699 73.405 208.699 72.6904V27.3096C208.699 26.595 209.08 25.9344 209.699 25.5771L209.698 25.5762L249 2.88672Z" stroke="#13D975" stroke-width="4"/>
</svg>
